<svg width="36" height="36" viewBox="0 0 36 36" fill="none" xmlns="http://www.w3.org/2000/svg">
<path d="M3.00002 21C4.65689 21 6.00005 19.6569 6.00005 18C6.00005 16.3431 4.65689 15 3.00002 15C1.34316 15 0 16.3431 0 18C0 19.6569 1.34316 21 3.00002 21Z" fill="#33CB98"/>
<path d="M18 21C19.6569 21 21.0001 19.6569 21.0001 18C21.0001 16.3431 19.6569 15 18 15C16.3432 15 15 16.3431 15 18C15 19.6569 16.3432 21 18 21Z" fill="#33CB98"/>
<path d="M33 21C34.6569 21 36.0001 19.6569 36.0001 18C36.0001 16.3431 34.6569 15 33 15C31.3432 15 30 16.3431 30 18C30 19.6569 31.3432 21 33 21Z" fill="#33CB98"/>
</svg>
