<svg width="22" height="22" viewBox="0 0 22 22" fill="none" xmlns="http://www.w3.org/2000/svg">
<path d="M6.25488 8C5.41113 8 4.75488 7.34375 4.75488 6.5C4.75488 5.70312 5.41113 5 6.25488 5C7.05176 5 7.75488 5.70312 7.75488 6.5C7.75488 7.34375 7.05176 8 6.25488 8ZM9.62988 6.5C9.62988 5.89062 10.0986 5.375 10.7549 5.375H15.2549C15.8643 5.375 16.3799 5.89062 16.3799 6.5C16.3799 7.15625 15.8643 7.625 15.2549 7.625H10.7549C10.0986 7.625 9.62988 7.15625 9.62988 6.5ZM9.62988 11C9.62988 10.3906 10.0986 9.875 10.7549 9.875H15.2549C15.8643 9.875 16.3799 10.3906 16.3799 11C16.3799 11.6562 15.8643 12.125 15.2549 12.125H10.7549C10.0986 12.125 9.62988 11.6562 9.62988 11ZM9.62988 15.5C9.62988 14.8906 10.0986 14.375 10.7549 14.375H15.2549C15.8643 14.375 16.3799 14.8906 16.3799 15.5C16.3799 16.1562 15.8643 16.625 15.2549 16.625H10.7549C10.0986 16.625 9.62988 16.1562 9.62988 15.5ZM6.25488 9.5C7.05176 9.5 7.75488 10.2031 7.75488 11C7.75488 11.8438 7.05176 12.5 6.25488 12.5C5.41113 12.5 4.75488 11.8438 4.75488 11C4.75488 10.2031 5.41113 9.5 6.25488 9.5ZM6.25488 17C5.41113 17 4.75488 16.3438 4.75488 15.5C4.75488 14.7031 5.41113 14 6.25488 14C7.05176 14 7.75488 14.7031 7.75488 15.5C7.75488 16.3438 7.05176 17 6.25488 17ZM0.254883 3.5C0.254883 1.85938 1.56738 0.5 3.25488 0.5H18.2549C19.8955 0.5 21.2549 1.85938 21.2549 3.5V18.5C21.2549 20.1875 19.8955 21.5 18.2549 21.5H3.25488C1.56738 21.5 0.254883 20.1875 0.254883 18.5V3.5ZM2.50488 3.5V18.5C2.50488 18.9219 2.83301 19.25 3.25488 19.25H18.2549C18.6299 19.25 19.0049 18.9219 19.0049 18.5V3.5C19.0049 3.125 18.6299 2.75 18.2549 2.75H3.25488C2.83301 2.75 2.50488 3.125 2.50488 3.5Z" fill="#39D2C0"/>
</svg>
