<?xml version="1.0" encoding="UTF-8"?>
<svg version="1.1" xmlns="http://www.w3.org/2000/svg" width="48" height="48">
<path d="M0 0 C15.84 0 31.68 0 48 0 C48 15.84 48 31.68 48 48 C32.16 48 16.32 48 0 48 C0 32.16 0 16.32 0 0 Z " fill="#6BB6B3" transform="translate(0,0)"/>
<path d="M0 0 C1.3303125 0.495 1.3303125 0.495 2.6875 1 C5.70923347 1.91222143 7.88373706 2.18330958 11 2 C11 1.34 11 0.68 11 0 C13.64 0 16.28 0 19 0 C19 0.66 19 1.32 19 2 C19.99 2 20.98 2 22 2 C22.33 1.34 22.66 0.68 23 0 C23 0.66 23 1.32 23 2 C23.66 2 24.32 2 25 2 C25 3.65 25 5.3 25 7 C24.34 7 23.68 7 23 7 C23 7.99 23 8.98 23 10 C21.02 10 19.04 10 17 10 C17 9.01 17 8.02 17 7 C16.67 7.99 16.34 8.98 16 10 C14.35 10 12.7 10 11 10 C10.67 9.01 10.34 8.02 10 7 C6.7 7 3.4 7 0 7 C-1 3 -1 3 0 0 Z " fill="#86C3C0" transform="translate(12,28)"/>
<path d="M0 0 C2.0625 1.6875 2.0625 1.6875 4 4 C4.13084789 8.84137182 0.84766594 12.35372664 -2 16 C-4.0625 14.375 -4.0625 14.375 -6 12 C-5.75 8.75 -5.75 8.75 -5 6 C-4.34 6 -3.68 6 -3 6 C-3.33 5.01 -3.66 4.02 -4 3 C-3.01 3 -2.02 3 -1 3 C-0.67 2.01 -0.34 1.02 0 0 Z " fill="#91C9C6" transform="translate(25,9)"/>
<path d="M0 0 C0.763125 0.350625 1.52625 0.70125 2.3125 1.0625 C7.36755261 2.34768287 11.8764457 1.67463171 17 1 C17 2.65 17 4.3 17 6 C5.47835991 7.14806378 5.47835991 7.14806378 0 7 C-0.93423645 3.98968256 -1.04449911 3.13349732 0 0 Z " fill="#AFD7D5" transform="translate(12,28)"/>
<path d="M0 0 C0.66 0 1.32 0 2 0 C2.33 0.66 2.66 1.32 3 2 C3.66 1.67 4.32 1.34 5 1 C3.68775452 4.93673644 2.08089673 7.22719294 -1 10 C-2.5625 8.25 -2.5625 8.25 -4 6 C-3.6875 3.75 -3.6875 3.75 -3 2 C-2.01 3.32 -1.02 4.64 0 6 C0 5.34 0 4.68 0 4 C0 2.68 0 1.36 0 0 Z " fill="#AFD7D5" transform="translate(23,15)"/>
<path d="M0 0 C1.98 0 3.96 0 6 0 C6 1.65 6 3.3 6 5 C-0.75 6.125 -0.75 6.125 -3 5 C-3 4.34 -3 3.68 -3 3 C-2.34 2.67 -1.68 2.34 -1 2 C-0.67 1.34 -0.34 0.68 0 0 Z " fill="#C5E2E1" transform="translate(23,29)"/>
<path d="M0 0 C0.33 0.66 0.66 1.32 1 2 C1.66 2 2.32 2 3 2 C2.67 3.32 2.34 4.64 2 6 C1.38125 5.814375 0.7625 5.62875 0.125 5.4375 C-2.04160178 4.76313824 -2.04160178 4.76313824 -4 6 C-4 4.68 -4 3.36 -4 2 C-2.68 2 -1.36 2 0 2 C0 1.34 0 0.68 0 0 Z " fill="#C6E2E1" transform="translate(34,28)"/>
</svg>
