<svg width="65" height="65" viewBox="0 0 65 65" fill="none" xmlns="http://www.w3.org/2000/svg">
<path d="M46.7619 27.6669C49.6494 27.6955 52.4104 28.8553 54.4523 30.897C56.4941 32.9388 57.6539 35.6999 57.6826 38.5873C57.7193 41.4378 56.5341 44.1619 54.6064 46.1853C52.5269 48.3681 49.7193 49.4698 46.7619 49.5079C42.4327 49.5635 42.4275 56.282 46.7619 56.2263C56.4519 56.1016 64.2763 48.2772 64.401 38.5872C64.5257 28.8966 56.2641 21.0705 46.7619 20.9484C42.4275 20.8927 42.4327 27.6112 46.7619 27.6669ZM18.1075 49.4678C15.22 49.4391 12.4589 48.2794 10.4171 46.2376C8.37525 44.1957 7.21549 41.4346 7.18685 38.5472C7.15023 35.6965 8.33514 32.9725 10.263 30.9487C12.3424 28.766 15.1499 27.6646 18.1074 27.6265C22.4365 27.5709 22.4419 20.8523 18.1074 20.9081C8.41735 21.0326 0.592972 28.8569 0.468431 38.5472C0.34389 48.2377 8.60524 56.0641 18.1075 56.1862C22.4419 56.2418 22.4366 49.5234 18.1075 49.4678Z" fill="#39D2C0"/>
<path d="M21.5618 24.388C21.5903 21.5006 22.75 18.7395 24.7918 16.6977C26.8336 14.6558 29.5947 13.4961 32.4821 13.4676C35.3327 13.431 38.0567 14.616 40.0801 16.5438C42.263 18.6232 43.3646 21.4306 43.4027 24.388C43.4583 28.717 50.1769 28.7224 50.1212 24.388C49.9966 14.6981 42.172 6.87373 32.4821 6.74919C22.7915 6.62465 14.9655 14.8857 14.8434 24.388C14.7875 28.7224 21.5061 28.717 21.5618 24.388Z" fill="#39D2C0"/>
<path d="M34.5972 30.0295C35.6472 31.0795 35.6472 32.7816 34.5972 33.8315L26.7965 41.6324C25.7465 42.6822 24.0444 42.6822 22.9946 41.6324C21.9445 40.5821 21.9445 38.8799 22.9946 37.8302L30.7953 30.0295C31.845 28.9794 33.5473 28.9794 34.5972 30.0295Z" fill="black"/>
<path d="M30.797 30.0293C31.8467 28.9795 33.549 28.9795 34.5988 30.0293L42.3998 37.8303C43.4496 38.8798 43.4496 40.5823 42.3998 41.6323C41.3498 42.6821 39.6474 42.6821 38.5977 41.6323L30.797 33.8316C29.7467 32.7815 29.7467 31.0794 30.797 30.0293Z" fill="black"/>
<path d="M32.6299 40.2502C34.1515 40.2502 35.3849 41.4838 35.3849 43.0051V54.3094C35.3849 55.8308 34.1514 57.0641 32.6299 57.0641C31.1087 57.0641 29.8752 55.8306 29.8752 54.3094V43.0051C29.8753 41.4837 31.1088 40.2502 32.6299 40.2502Z" fill="black"/>
</svg>
